<svg width="300" height="256" viewBox="0 0 300 256" fill="none" xmlns="http://www.w3.org/2000/svg">
<g id="exclamation-sign">
<path id="sign" d="M297.36 227.169L165.741 8.88985C162.414 3.37324 156.442 0 150 0C143.557 0 137.585 3.37266 134.258 8.88985L2.64021 227.169C-0.782842 232.846 -0.88421 239.927 2.37595 245.699C5.63611 251.472 11.7515 255.041 18.3809 255.041H281.619C288.248 255.041 294.364 251.471 297.624 245.699C300.884 239.926 300.783 232.846 297.36 227.169Z" fill="#919AA1"/>
<g id="exclamation">
<path id="exclamation-dot" d="M150.276 217.934C141.748 217.934 135.352 210.957 135.352 203.01C135.352 194.87 141.748 188.086 150.276 188.086C158.223 188.086 165.007 194.87 165.007 203.01C165.007 210.957 158.223 217.934 150.276 217.934Z" fill="#1A1A1A"/>
<path id="exclamation_2" d="M150.086 75.0001C157.645 75.0001 164.041 79.2646 164.041 86.8232C164.041 109.887 161.327 143.032 161.327 166.096C161.327 172.105 154.737 174.624 150.086 174.624C143.884 174.624 138.651 172.104 138.651 166.096C138.651 143.032 135.938 109.887 135.938 86.8232C135.938 79.2646 142.139 75.0001 150.086 75.0001Z" fill="#1A1A1A"/>
</g>
</g>
</svg>
