<svg width="219" height="300" viewBox="0 0 219 300" fill="none" xmlns="http://www.w3.org/2000/svg">
<g id="lock">
<path id="lock_2" d="M0 125.606C0 120.73 3.95165 116.778 8.82783 116.778H209.684C214.558 116.778 218.51 120.73 218.511 125.606V291.172C218.511 296.048 214.559 300 209.684 300H8.82783C3.95165 300 0 296.048 0 291.172V125.606Z" fill="#919AA1"/>
<path id="keyhole" d="M123.582 254.909V219.662C129.671 215.344 133.648 208.245 133.648 200.211C133.648 187.051 122.978 176.38 109.817 176.38C96.6549 176.38 85.9854 187.051 85.9854 200.211C85.9854 208.245 89.9627 215.344 96.053 219.662V254.909C96.053 257.988 98.5495 260.484 101.628 260.484H118.006C121.086 260.484 123.582 257.988 123.582 254.909Z" fill="#1A1A1A"/>
<path id="top-lock" d="M194.913 122.658H154.173V85.3298C154.173 60.7424 134.171 40.7401 109.584 40.7401C84.9961 40.7401 64.9924 60.7424 64.9924 85.3298V217.903H24.2523V85.3298C24.2523 38.2789 62.5326 0 109.584 0C156.634 0 194.913 38.2789 194.913 85.3298V122.658Z" fill="#919AA1"/>
</g>
</svg>
