<svg width="233" height="300" viewBox="0 0 233 300" fill="none" xmlns="http://www.w3.org/2000/svg">
<g id="plane">
<path id="plane_2" d="M232.102 249.543V216.578L140.27 99.2438V91.7812C140.27 73.3887 132.029 0 116.051 0C100.073 0 91.8317 73.3897 91.8317 91.7812V100.279L91.752 99.1812L0 216.578V249.543L91.8317 198.518V234.689L49.4478 266.698V282.845H82.7494V291.927C82.7494 296.385 86.3642 300 90.8226 300C95.2809 300 98.8957 296.385 98.8957 291.927V282.845H133.206V291.927C133.206 296.385 136.821 300 141.28 300C145.738 300 149.353 296.385 149.353 291.927V282.845H182.654V266.698L140.27 234.572V198.541L232.102 249.543Z" fill="#919AA1"/>
</g>
</svg>
